{
    "asset" : {
        "generator" : "Khronos glTF Blender I/O v3.4.50",
        "version" : "2.0"
    },
    "scene" : 0,
    "scenes" : [
        {
            "name" : "Scene",
            "nodes" : [
                2
            ]
        }
    ],
    "nodes" : [
        {
            "mesh" : 0,
            "name" : "puffer_jacket_1003",
            "translation" : [
                -0.02793121337890625,
                1.52587890625e-05,
                0.9824109077453613
            ]
        },
        {
            "mesh" : 1,
            "name" : "puffer_jacket_1004",
            "translation" : [
                -0.02793121337890625,
                1.52587890625e-05,
                0.9824109077453613
            ]
        },
        {
            "children" : [
                0,
                1
            ],
            "name" : "puffer_jacket_grp"
        }
    ],
    "materials" : [
        {
            "doubleSided" : true,
            "name" : "puffer_jacket_1003_mat.001",
            "normalTexture" : {
                "index" : 0
            },
            "pbrMetallicRoughness" : {
                "baseColorTexture" : {
                    "index" : 1
                },
                "metallicRoughnessTexture" : {
                    "index" : 2
                }
            }
        },
        {
            "doubleSided" : true,
            "name" : "puffer_jacket_1004_mat.001",
            "normalTexture" : {
                "index" : 3
            },
            "pbrMetallicRoughness" : {
                "baseColorTexture" : {
                    "index" : 4
                },
                "metallicRoughnessTexture" : {
                    "index" : 5
                }
            }
        }
    ],
    "meshes" : [
        {
            "name" : "Mesh",
            "primitives" : [
                {
                    "attributes" : {
                        "POSITION" : 0,
                        "TEXCOORD_0" : 1,
                        "NORMAL" : 2
                    },
                    "indices" : 3,
                    "material" : 0
                }
            ]
        },
        {
            "name" : "Mesh.001",
            "primitives" : [
                {
                    "attributes" : {
                        "POSITION" : 4,
                        "TEXCOORD_0" : 5,
                        "NORMAL" : 6
                    },
                    "indices" : 7,
                    "material" : 1
                }
            ]
        }
    ],
    "textures" : [
        {
            "sampler" : 0,
            "source" : 0
        },
        {
            "sampler" : 0,
            "source" : 1
        },
        {
            "sampler" : 0,
            "source" : 2
        },
        {
            "sampler" : 0,
            "source" : 3
        },
        {
            "sampler" : 0,
            "source" : 4
        },
        {
            "sampler" : 0,
            "source" : 5
        }
    ],
    "images" : [
        {
            "mimeType" : "image/png",
            "name" : "Puffer_Jacket_1003_norm",
            "uri" : "Puffer_Jacket_1003_norm.png"
        },
        {
            "mimeType" : "image/png",
            "name" : "Puffer_Jacket_1003_bcolor",
            "uri" : "Puffer_Jacket_1003_bcolor.png"
        },
        {
            "mimeType" : "image/png",
            "name" : "Puffer_Jacket_1003_metal-Puffer_Jacket_1003_rough",
            "uri" : "Puffer_Jacket_1003_metal-Puffer_Jacket_1003_rough.png"
        },
        {
            "mimeType" : "image/png",
            "name" : "Puffer_Jacket_1004_norm",
            "uri" : "Puffer_Jacket_1004_norm.png"
        },
        {
            "mimeType" : "image/png",
            "name" : "Puffer_Jacket_1004_bcolor",
            "uri" : "Puffer_Jacket_1004_bcolor.png"
        },
        {
            "mimeType" : "image/png",
            "name" : "Puffer_Jacket_1004_metal-Puffer_Jacket_1004_rough",
            "uri" : "Puffer_Jacket_1004_metal-Puffer_Jacket_1004_rough.png"
        }
    ],
    "accessors" : [
        {
            "bufferView" : 0,
            "componentType" : 5126,
            "count" : 56328,
            "max" : [
                54.30921173095703,
                69.28569793701172,
                15.730313301086426
            ],
            "min" : [
                -54.30921173095703,
                -1.52587890625e-05,
                -15.730303764343262
            ],
            "type" : "VEC3"
        },
        {
            "bufferView" : 1,
            "componentType" : 5126,
            "count" : 56328,
            "type" : "VEC2"
        },
        {
            "bufferView" : 2,
            "componentType" : 5126,
            "count" : 56328,
            "type" : "VEC3"
        },
        {
            "bufferView" : 3,
            "componentType" : 5123,
            "count" : 84444,
            "type" : "SCALAR"
        },
        {
            "bufferView" : 4,
            "componentType" : 5126,
            "count" : 61476,
            "max" : [
                54.49967575073242,
                69.43502044677734,
                15.058656692504883
            ],
            "min" : [
                -54.44381332397461,
                1.0413436889648438,
                -17.69513511657715
            ],
            "type" : "VEC3"
        },
        {
            "bufferView" : 5,
            "componentType" : 5126,
            "count" : 61476,
            "type" : "VEC2"
        },
        {
            "bufferView" : 6,
            "componentType" : 5126,
            "count" : 61476,
            "type" : "VEC3"
        },
        {
            "bufferView" : 7,
            "componentType" : 5123,
            "count" : 92160,
            "type" : "SCALAR"
        }
    ],
    "bufferViews" : [
        {
            "buffer" : 0,
            "byteLength" : 675936,
            "byteOffset" : 0,
            "target" : 34962
        },
        {
            "buffer" : 0,
            "byteLength" : 450624,
            "byteOffset" : 675936,
            "target" : 34962
        },
        {
            "buffer" : 0,
            "byteLength" : 675936,
            "byteOffset" : 1126560,
            "target" : 34962
        },
        {
            "buffer" : 0,
            "byteLength" : 168888,
            "byteOffset" : 1802496,
            "target" : 34963
        },
        {
            "buffer" : 0,
            "byteLength" : 737712,
            "byteOffset" : 1971384,
            "target" : 34962
        },
        {
            "buffer" : 0,
            "byteLength" : 491808,
            "byteOffset" : 2709096,
            "target" : 34962
        },
        {
            "buffer" : 0,
            "byteLength" : 737712,
            "byteOffset" : 3200904,
            "target" : 34962
        },
        {
            "buffer" : 0,
            "byteLength" : 184320,
            "byteOffset" : 3938616,
            "target" : 34963
        }
    ],
    "samplers" : [
        {
            "magFilter" : 9729,
            "minFilter" : 9987
        }
    ],
    "buffers" : [
        {
            "byteLength" : 4122936,
            "uri" : "puffer_jacket.bin"
        }
    ]
}
